<svg viewBox="0 0 120 120" xmlns="http://www.w3.org/2000/svg">
    <defs>
        <linearGradient id="videoGrad" x1="0%" y1="0%" x2="100%" y2="100%">
            <stop offset="0%" stop-color="#4facfe" stop-opacity="1" />
            <stop offset="100%" stop-color="#00f2fe" stop-opacity="1" />
        </linearGradient>
        <linearGradient id="aiGrad" x1="0%" y1="0%" x2="100%" y2="100%">
            <stop offset="0%" stop-color="#fa709a" stop-opacity="1" />
            <stop offset="100%" stop-color="#fee140" stop-opacity="1" />
        </linearGradient>
        <linearGradient id="bgGrad" x1="0%" y1="0%" x2="100%" y2="100%">
            <stop offset="0%" stop-color="#667eea" stop-opacity="1" />
            <stop offset="100%" stop-color="#764ba2" stop-opacity="1" />
        </linearGradient>
    </defs>
    
    <!-- Background circle -->
    <circle cx="60" cy="60" r="55" fill="url(#bgGrad)" stroke="#fff" stroke-width="3"/>
    
    <!-- Video frame -->
    <rect x="20" y="35" width="80" height="50" rx="8" fill="url(#videoGrad)" stroke="#fff" stroke-width="2"/>
    
    <!-- Play button -->
    <polygon points="45,50 45,70 65,60" fill="white"/>
    
    <!-- AI Brain -->
    <g transform="translate(85, 25)">
        <ellipse cx="0" cy="0" rx="12" ry="10" fill="url(#aiGrad)"/>
        
        <!-- Neural network nodes -->
        <g>
            <circle cx="-6" cy="-3" r="1.5" fill="white"/>
            <circle cx="6" cy="-3" r="1.5" fill="white"/>
            <circle cx="0" cy="3" r="1.5" fill="white"/>
            <circle cx="-3" cy="6" r="1.5" fill="white"/>
            <circle cx="3" cy="6" r="1.5" fill="white"/>
        </g>
        
        <!-- Neural connections -->
        <g>
            <line x1="-6" y1="-3" x2="0" y2="3" stroke="white" stroke-width="0.5" opacity="0.7"/>
            <line x1="6" y1="-3" x2="0" y2="3" stroke="white" stroke-width="0.5" opacity="0.7"/>
            <line x1="0" y1="3" x2="-3" y2="6" stroke="white" stroke-width="0.5" opacity="0.7"/>
            <line x1="0" y1="3" x2="3" y2="6" stroke="white" stroke-width="0.5" opacity="0.7"/>
        </g>
    </g>
    
    <!-- Download indicator -->
    <g transform="translate(60, 95)">
        <polygon points="-8,0 0,8 8,0" fill="#fff" opacity="0.9"/>
        <rect x="-1" y="-8" width="2" height="8" fill="#fff" opacity="0.9"/>
    </g>
    
    <!-- Floating particles for tech feel -->
    <circle cx="25" cy="20" r="1.5" fill="white" opacity="0.6"/>
    <circle cx="95" cy="100" r="1" fill="white" opacity="0.5"/>
</svg>
